/* XPM */
static char *result[] = {
/* columns rows colors chars-per-pixel */
"16 16 8 1 ",
"  c #25131A",
". c #523B40",
"X c #895A45",
"o c #BF704D",
"O c #90919E",
"+ c #ADC1CF",
"@ c #BBD3E1",
"# c None",
/* pixels */
"################",
"###          ###",
"##  OO++++OO  ##",
"#  +o+XXXX@o+  #",
"# OXooooooooXO #",
"# ++++++++++++ #",
"#    OOOOOO    #",
"# +X...OO...X+ #",
"## OO.OOOO.OO ##",
"## OO......OO ##",
"## OO......OO ##",
"# +O...XX...O+ #",
"# ++OOOOOOOO++ #",
"#              #",
"################",
"################"
};
