/* XPM */
static char *_2e7f8e3cb2b4587c065faaf5eb692d8hdTpFTtL8TusnWKe[] = {
/* columns rows colors chars-per-pixel */
"16 21 7 1 ",
"  c None",
". c #3A3A50",
"X c #B35E3F",
"o c #BE664C",
"O c #CA8854",
"+ c #D18F5B",
"@ c #D9A16A",
/* pixels */
" .............. ",
" .++O++O+O+OOO. ",
" .+XXXXXXXXX@O. ",
" .+XOOOOOOOO@O. ",
" .+XOOOOOOOO@O. ",
" .OXOOOOOOOO@O. ",
" .OXOOOOOOOO@O. ",
" .OXOOOOOOOO@O. ",
" .O@@@@@@@@@@O. ",
" .O+O+OO+O+OOO. ",
" .O+OOOOOO+OOO. ",
" .OOO+OO+O+@XO. ",
" .OOOOOOOO+XXO. ",
" .OOOOOOOO+OOO. ",
" .O+OOOOOOOOOO. ",
" .OOOOOOOOOOOO. ",
" .OOOOOOOO+OOO. ",
" .OOOOOOOOOOOO. ",
" .OOOOOOOO+OOO. ",
" .oooooooooooo. ",
" .............. "
};
