/* XPM */
static char *result[] = {
/* columns rows colors chars-per-pixel */
"16 16 2 1 ",
"  c #362030",
". c #3D253B",
/* pixels */
".           . ..",
" ...............",
" ...............",
" ...............",
" ....... .......",
" ....... .......",
"........ .......",
" .......        ",
"........ .......",
"........ .......",
"........ .......",
"................",
"................",
" ...............",
" ...............",
" ..............."
};
